<svg id="Layer_1" enable-background="new 0 0 512.002 512.002" height="512" viewBox="0 0 512.002 512.002" width="512" xmlns="http://www.w3.org/2000/svg"><g><g clip-rule="evenodd" fill-rule="evenodd"><g fill="#66e0f7"><path d="m216.001 110c0-18.281 1.962-35.416 5.388-50.16 6.926-29.802 19.833-49.84 34.612-49.84-55.228 0-100 44.771-100 100 0 11.192 1.838 21.955 5.23 32.002 13.346 39.533 50.734 67.998 94.77 67.998-14.779 0-27.686-20.038-34.612-49.839-3.426-14.745-5.388-31.881-5.388-50.161z"/><path d="m256.001 63.498c-11.766 0-23.405-1.244-34.612-3.659-3.426 14.745-5.388 31.88-5.388 50.16h80c0-18.281-1.962-35.416-5.388-50.16-11.207 2.415-22.846 3.659-34.612 3.659z"/><path d="m221.39 59.839c11.206 2.414 22.846 3.659 34.612 3.659 11.765 0 23.405-1.244 34.612-3.659-6.927-29.801-19.834-49.839-34.613-49.839s-27.686 20.038-34.611 49.839z"/><path d="m296.001 110h-80c0 18.281 1.962 35.416 5.388 50.16 11.206-2.414 22.846-3.659 34.612-3.659 11.765 0 23.405 1.244 34.612 3.659 3.426-14.744 5.388-31.88 5.388-50.16z"/><path d="m256.001 156.502c-11.766 0-23.405 1.244-34.612 3.659 6.926 29.801 19.833 49.839 34.612 49.839s27.686-20.038 34.612-49.839c-11.207-2.415-22.846-3.659-34.612-3.659z"/><path d="m290.613 160.16c-6.926 29.802-19.833 49.84-34.612 49.84 44.036 0 81.425-28.464 94.77-67.998 3.392-10.047 5.23-20.81 5.23-32.002 0-55.228-44.772-100-100-100 14.779 0 27.686 20.038 34.612 49.839 3.426 14.745 5.388 31.88 5.388 50.16s-1.962 35.416-5.388 50.161z"/></g><path d="m256.001 210c-44.036 0-81.425-28.464-94.769-67.998h-101.23c-5.5 0-10 4.5-10 10v30.002 237.997h174c17.6 0 32 14.4 32 32v-242.001z" fill="#fff"/><path d="m256.001 210v242c0-17.6 14.4-32 32-32h174v-237.997-30.002c0-5.5-4.5-10-10-10h-101.23c-13.345 39.534-50.734 67.999-94.77 67.999z" fill="#fff"/><path d="m462.001 420.001h-174c-17.6 0-32 14.4-32 32 0-17.6-14.4-32-32-32h-174v30.002c0 5.5 4.5 10 10 10h164c17.6 0 32 14.4 32 32 0-17.6 14.4-32 32-32h164c5.5 0 10-4.5 10-10z" fill="#c5d3de"/><path d="m256.001 492.002c0-17.6-14.4-32-32-32-54.667 0-109.333 0-164 0-5.5 0-10-4.5-10-10v-30.002-237.997h-30.001c-5.5 0-10 4.5-10 10v299.999c0 5.5 4.5 10 10 10h472.002c5.5 0 10-4.5 10-10v-299.999c0-5.5-4.5-10-10-10h-30.002v237.997 30.002c0 5.5-4.5 10-10 10-54.667 0-109.333 0-164 0-17.599 0-31.999 14.4-31.999 32z" fill="#8481e2"/></g><g><path d="m90.003 312.004h125.997c5.523 0 10-4.477 10-10s-4.477-10-10-10h-125.997c-5.523 0-10 4.477-10 10s4.477 10 10 10z"/><path d="m90.003 352.005h125.997c5.523 0 10-4.477 10-10s-4.477-10-10-10h-125.997c-5.523 0-10 4.477-10 10s4.477 10 10 10z"/><path d="m421.999 292.004h-125.997c-5.523 0-10 4.477-10 10s4.477 10 10 10h125.997c5.523 0 10-4.477 10-10s-4.477-10-10-10z"/><path d="m421.999 332.005h-125.997c-5.523 0-10 4.477-10 10s4.477 10 10 10h125.997c5.523 0 10-4.477 10-10s-4.477-10-10-10z"/><path d="m359.001 232.001h62.999c5.523 0 10-4.477 10-10s-4.477-10-10-10h-62.999c-5.523 0-10 4.477-10 10s4.477 10 10 10z"/><path d="m421.999 252.002h-125.997c-5.523 0-10 4.477-10 10s4.477 10 10 10h125.997c5.523 0 10-4.477 10-10s-4.477-10-10-10z"/><path d="m390.5 192h31.499c5.523 0 10-4.477 10-10s-4.477-10-10-10h-31.499c-5.523 0-10 4.477-10 10s4.477 10 10 10z"/><path d="m216 392.007c5.523 0 10-4.477 10-10s-4.477-10-10-10h-125.997c-5.523 0-10 4.477-10 10s4.477 10 10 10z"/><path d="m421.999 372.007h-125.997c-5.523 0-10 4.477-10 10s4.477 10 10 10h125.997c5.523 0 10-4.477 10-10s-4.477-10-10-10z"/><path d="m90.003 192h31.5c5.523 0 10-4.477 10-10s-4.477-10-10-10h-31.5c-5.523 0-10 4.477-10 10s4.477 10 10 10z"/><path d="m90.003 232.001h62.999c5.523 0 10-4.477 10-10s-4.477-10-10-10h-62.999c-5.523 0-10 4.477-10 10s4.477 10 10 10z"/><path d="m90.003 272.002h125.997c5.523 0 10-4.477 10-10s-4.477-10-10-10h-125.997c-5.523 0-10 4.477-10 10s4.477 10 10 10z"/><path d="m492.002 172.003h-20.001v-20.002c0-11.028-8.972-20-20-20h-88.212c1.449-7.111 2.212-14.469 2.212-22.002 0-60.654-49.346-110-110-110s-110 49.346-110 110c0 7.533.763 14.891 2.212 22.002h-88.211c-11.028 0-20 8.972-20 20v20.002h-20.002c-11.028 0-20 8.972-20 20v299.999c0 11.028 8.972 20 20 20h472.002c11.028 0 20-8.972 20-20v-299.999c0-11.028-8.972-20-20-20zm-308.872-114.755c8.433 4.094 17.324 7.451 26.557 10.02-1.865 10.33-3.054 21.349-3.49 32.732h-39.637c1.76-15.848 7.651-30.466 16.57-42.752zm162.313 42.752h-39.636c-.437-11.383-1.625-22.403-3.49-32.732 9.232-2.569 18.124-5.927 26.557-10.02 8.918 12.286 14.809 26.904 16.569 42.752zm-16.57 62.752c-8.433-4.094-17.324-7.451-26.557-10.021 1.865-10.33 3.054-21.349 3.49-32.732h39.636c-1.759 15.849-7.65 30.467-16.569 42.753zm-91.848 14.188c-1.124-2.809-2.158-5.783-3.119-8.875 7.23-1.03 14.616-1.564 22.095-1.564s14.866.534 22.096 1.564c-.961 3.091-1.995 6.066-3.119 8.875-5.604 14.008-13.052 23.06-18.977 23.06-5.924 0-13.373-9.052-18.976-23.06zm48.767-56.94c-.41 9.963-1.438 19.564-3.026 28.54-8.753-1.345-17.705-2.039-26.764-2.039s-18.011.694-26.764 2.039c-1.588-8.976-2.616-18.577-3.026-28.54zm-59.581-20c.41-9.963 1.438-19.565 3.026-28.541 8.753 1.345 17.705 2.039 26.764 2.039s18.011-.694 26.764-2.039c1.588 8.976 2.616 18.578 3.026 28.541zm67.337 84.368c1.531-3.827 2.928-7.887 4.191-12.14 5.807 1.652 11.45 3.655 16.894 5.997-7.467 6.426-15.996 11.649-25.285 15.367 1.479-2.861 2.883-5.933 4.2-9.224zm4.191-136.596c-1.263-4.253-2.66-8.313-4.191-12.14-1.317-3.292-2.721-6.364-4.2-9.224 9.289 3.719 17.818 8.941 25.285 15.367-5.444 2.342-11.088 4.345-16.894 5.997zm-22.761-4.712c1.124 2.809 2.158 5.783 3.119 8.875-7.23 1.03-14.617 1.564-22.096 1.564s-14.865-.534-22.095-1.564c.961-3.091 1.995-6.066 3.119-8.875 5.603-14.009 13.052-23.06 18.977-23.06s13.373 9.051 18.976 23.06zm-56.523-7.428c-1.531 3.827-2.928 7.887-4.191 12.14-5.807-1.652-11.45-3.655-16.894-5.997 7.467-6.426 15.996-11.649 25.285-15.367-1.479 2.861-2.883 5.932-4.2 9.224zm-51.895 84.368h39.636c.437 11.383 1.625 22.402 3.49 32.732-9.233 2.569-18.124 5.927-26.557 10.02-8.918-12.287-14.809-26.904-16.569-42.752zm47.704 52.228c1.263 4.253 2.661 8.313 4.191 12.14 1.317 3.291 2.721 6.363 4.2 9.224-9.289-3.719-17.818-8.941-25.285-15.367 5.444-2.342 11.087-4.346 16.894-5.997zm51.737 279.772c0-12.131 9.869-22 22-22h164v20.001h-164c-8.061 0-15.597 2.286-22 6.24zm186-299.999v257.999h-164c-8.061 0-15.597 2.286-22 6.24v-196.7c41.454-3.754 76.34-30.599 91.659-67.538zm-391.999.001h94.341c15.319 36.939 50.205 63.784 91.658 67.538v196.7c-6.403-3.953-13.939-6.24-22-6.24h-84c-5.523 0-10 4.477-10 10s4.477 10 10 10h84c12.131 0 22 9.869 22 22v4.242c-6.403-3.953-13.938-6.24-22-6.24h-164v-298zm-40.002 40.001h20.001v257.999c0 11.028 8.972 20 20 20h164c12.131 0 22 9.869 22 22h-226.001zm246.001 299.999c0-12.131 9.869-22 22-22h164c11.028 0 20-8.972 20-20v-257.999h20.001v299.999z"/><path d="m95.005 410h-.007c-5.523 0-9.996 4.477-9.996 10s4.48 10 10.003 10 10-4.477 10-10-4.477-10-10-10z"/></g></g></svg>